HIERARCHY
ROOT Hips
{
    OFFSET   0.000000   0.000000   0.000000
    CHANNELS 6 Xposition Yposition Zposition Zrotation Xrotation Yrotation
    JOINT Chest
    {
        OFFSET   0.000000   8.007240   0.000000
        CHANNELS 3 Zrotation Xrotation Yrotation
        JOINT Chest2
        {
            OFFSET   0.000000  22.077100   0.000000
            CHANNELS 3 Zrotation Xrotation Yrotation
            JOINT Neck
            {
                OFFSET   0.000000  23.254800   0.000000
                CHANNELS 3 Zrotation Xrotation Yrotation
                JOINT Head
                {
                    OFFSET   0.000000  14.370000   1.956600
                    CHANNELS 3 Zrotation Xrotation Yrotation
                    End Site
                    {
                        OFFSET   0.000000  19.566000   0.000000
                    }
                }
            }
            JOINT LeftCollar
            {
                OFFSET   3.911900  19.017000  -0.467064
                CHANNELS 3 Zrotation Xrotation Yrotation
                JOINT LeftShoulder
                {
                    OFFSET  10.383700   0.000000   0.000000
                    CHANNELS 3 Zrotation Xrotation Yrotation
                    JOINT LeftElbow
                    {
                        OFFSET  26.662100   0.001476   0.000517
                        CHANNELS 3 Zrotation Xrotation Yrotation
                        JOINT LeftWrist
                        {
                            OFFSET  28.869000  -0.000025  -0.000106
                            CHANNELS 3 Zrotation Xrotation Yrotation
                            JOINT LeftFinger0
                            {
                                OFFSET   2.044660  -2.323460   3.252850
                                CHANNELS 3 Zrotation Xrotation Yrotation
                                JOINT LeftFinger01
                                {
                                    OFFSET   3.088130   0.000000   0.000000
                                    CHANNELS 3 Zrotation Xrotation Yrotation
                                    JOINT LeftFinger02
                                    {
                                        OFFSET   2.639460   0.000000   0.000000
                                        CHANNELS 3 Zrotation Xrotation Yrotation
                                        End Site
                                        {
                                            OFFSET   2.582190   0.000000   0.000000
                                        }
                                    }
                                }
                            }
                            JOINT LeftFinger1
                            {
                                OFFSET   8.364480   0.000000   3.252850
                                CHANNELS 3 Zrotation Xrotation Yrotation
                                JOINT LeftFinger11
                                {
                                    OFFSET   4.646930   0.000000   0.000000
                                    CHANNELS 3 Zrotation Xrotation Yrotation
                                    JOINT LeftFinger12
                                    {
                                        OFFSET   2.323460   0.000000   0.000000
                                        CHANNELS 3 Zrotation Xrotation Yrotation
                                        End Site
                                        {
                                            OFFSET   2.273050   0.000000   0.000000
                                        }
                                    }
                                }
                            }
                            JOINT LeftFinger2
                            {
                                OFFSET   8.364490   0.000015   1.078090
                                CHANNELS 3 Zrotation Xrotation Yrotation
                                JOINT LeftFinger21
                                {
                                    OFFSET   5.111620   0.000000   0.000000
                                    CHANNELS 3 Zrotation Xrotation Yrotation
                                    JOINT LeftFinger22
                                    {
                                        OFFSET   2.788160   0.000016   0.000000
                                        CHANNELS 3 Zrotation Xrotation Yrotation
                                        End Site
                                        {
                                            OFFSET   2.727660   0.000000   0.000000
                                        }
                                    }
                                }
                            }
                            JOINT LeftFinger3
                            {
                                OFFSET   7.899780   0.000017  -1.078090
                                CHANNELS 3 Zrotation Xrotation Yrotation
                                JOINT LeftFinger31
                                {
                                    OFFSET   4.646930   0.000000   0.000000
                                    CHANNELS 3 Zrotation Xrotation Yrotation
                                    JOINT LeftFinger32
                                    {
                                        OFFSET   2.323470   0.000000   0.000000
                                        CHANNELS 3 Zrotation Xrotation Yrotation
                                        End Site
                                        {
                                            OFFSET   2.273050   0.000000   0.000000
                                        }
                                    }
                                }
                            }
                            JOINT LeftFinger4
                            {
                                OFFSET   7.435090   0.000000  -3.252850
                                CHANNELS 3 Zrotation Xrotation Yrotation
                                JOINT LeftFinger41
                                {
                                    OFFSET   3.717550   0.000000   0.000000
                                    CHANNELS 3 Zrotation Xrotation Yrotation
                                    JOINT LeftFinger42
                                    {
                                        OFFSET   1.858770   0.000000   0.000000
                                        CHANNELS 3 Zrotation Xrotation Yrotation
                                        End Site
                                        {
                                            OFFSET   1.818440   0.000000   0.000000
                                        }
                                    }
                                }
                            }
                        }
                    }
                }
            }
            JOINT RightCollar
            {
                OFFSET  -3.911900  19.017000  -0.467063
                CHANNELS 3 Zrotation Xrotation Yrotation
                JOINT RightShoulder
                {
                    OFFSET -10.383700   0.000019   0.000000
                    CHANNELS 3 Zrotation Xrotation Yrotation
                    JOINT RightElbow
                    {
                        OFFSET -26.662100   0.001175   0.000102
                        CHANNELS 3 Zrotation Xrotation Yrotation
                        JOINT RightWrist
                        {
                            OFFSET -28.869000   0.000016  -0.000079
                            CHANNELS 3 Zrotation Xrotation Yrotation
                            JOINT RightFinger0
                            {
                                OFFSET  -2.044660  -2.323490   3.252850
                                CHANNELS 3 Zrotation Xrotation Yrotation
                                JOINT RightFinger01
                                {
                                    OFFSET  -3.088140   0.000000   0.000000
                                    CHANNELS 3 Zrotation Xrotation Yrotation
                                    JOINT RightFinger02
                                    {
                                        OFFSET  -2.639460   0.000000   0.000000
                                        CHANNELS 3 Zrotation Xrotation Yrotation
                                        End Site
                                        {
                                            OFFSET  -2.582190   0.000000   0.000000
                                        }
                                    }
                                }
                            }
                            JOINT RightFinger1
                            {
                                OFFSET  -8.364480   0.000000   3.252850
                                CHANNELS 3 Zrotation Xrotation Yrotation
                                JOINT RightFinger11
                                {
                                    OFFSET  -4.646930   0.000000   0.000000
                                    CHANNELS 3 Zrotation Xrotation Yrotation
                                    JOINT RightFinger12
                                    {
                                        OFFSET  -2.323470   0.000000   0.000000
                                        CHANNELS 3 Zrotation Xrotation Yrotation
                                        End Site
                                        {
                                            OFFSET  -2.273050   0.000000   0.000000
                                        }
                                    }
                                }
                            }
                            JOINT RightFinger2
                            {
                                OFFSET  -8.364480   0.000000   1.078090
                                CHANNELS 3 Zrotation Xrotation Yrotation
                                JOINT RightFinger21
                                {
                                    OFFSET  -5.111620   0.000000   0.000000
                                    CHANNELS 3 Zrotation Xrotation Yrotation
                                    JOINT RightFinger22
                                    {
                                        OFFSET  -2.788160   0.000000   0.000000
                                        CHANNELS 3 Zrotation Xrotation Yrotation
                                        End Site
                                        {
                                            OFFSET  -2.727660   0.000000   0.000000
                                        }
                                    }
                                }
                            }
                            JOINT RightFinger3
                            {
                                OFFSET  -7.899780   0.000000  -1.078090
                                CHANNELS 3 Zrotation Xrotation Yrotation
                                JOINT RightFinger31
                                {
                                    OFFSET  -4.646930   0.000000   0.000000
                                    CHANNELS 3 Zrotation Xrotation Yrotation
                                    JOINT RightFinger32
                                    {
                                        OFFSET  -2.323470   0.000000   0.000000
                                        CHANNELS 3 Zrotation Xrotation Yrotation
                                        End Site
                                        {
                                            OFFSET  -2.273050   0.000000   0.000000
                                        }
                                    }
                                }
                            }
                            JOINT RightFinger4
                            {
                                OFFSET  -7.435090   0.000000  -3.252850
                                CHANNELS 3 Zrotation Xrotation Yrotation
                                JOINT RightFinger41
                                {
                                    OFFSET  -3.717550   0.000000   0.000000
                                    CHANNELS 3 Zrotation Xrotation Yrotation
                                    JOINT RightFinger42
                                    {
                                        OFFSET  -1.858770   0.000000   0.000000
                                        CHANNELS 3 Zrotation Xrotation Yrotation
                                        End Site
                                        {
                                            OFFSET  -1.818440   0.000000   0.000000
                                        }
                                    }
                                }
                            }
                        }
                    }
                }
            }
        }
    }
    JOINT LeftHip
    {
        OFFSET   9.783040   0.000000   0.000000
        CHANNELS 3 Zrotation Xrotation Yrotation
        JOINT LeftKnee
        {
            OFFSET   0.000032 -41.789100  -0.002222
            CHANNELS 3 Zrotation Xrotation Yrotation
            JOINT LeftAnkle
            {
                OFFSET   0.000087 -41.133200  -0.000135
                CHANNELS 3 Zrotation Xrotation Yrotation
                JOINT LeftToe
                {
                    OFFSET   0.000000  -6.358960  14.674500
                    CHANNELS 3 Zrotation Xrotation Yrotation
                    End Site
                    {
                        OFFSET   0.000000   0.000000   3.913200
                    }
                }
            }
        }
    }
    JOINT RightHip
    {
        OFFSET  -9.783040   0.000000   0.000000
        CHANNELS 3 Zrotation Xrotation Yrotation
        JOINT RightKnee
        {
            OFFSET   0.000047 -41.789100  -0.000896
            CHANNELS 3 Zrotation Xrotation Yrotation
            JOINT RightAnkle
            {
                OFFSET  -0.000117 -41.133300  -0.000248
                CHANNELS 3 Zrotation Xrotation Yrotation
                JOINT RightToe
                {
                    OFFSET   0.000000  -6.358970  14.674500
                    CHANNELS 3 Zrotation Xrotation Yrotation
                    End Site
                    {
                        OFFSET   0.000000   0.000000   3.913200
                    }
                }
            }
        }
    }
}
MOTION
Frames: 4
Frame Time:   0.016667
 -1.684440  89.485900   3.618790  -2.119220 -13.106100   1.930510   3.374440   8.256570  -0.595527   6.945960  16.462200  -1.714080  -1.809360   1.586770   0.050087  -2.978730   3.208110   9.704490 -11.603000  -0.425336  -3.933720 -53.647100  22.181800 -48.090300  22.610800   6.910180 -69.042000  25.441800  27.933800 -10.398100  37.631700  21.383800 -61.974600   7.661810   0.001509   0.000899   8.830900   0.007185   0.001748 -18.566400   5.776930 -16.662900 -15.884000   0.002431   0.008359 -11.118800   0.003041   0.003163 -20.877000   4.268780 -11.036900 -21.289600   0.002707   0.004718 -14.178900   0.006364   0.003969 -22.334400   4.424310 -10.620100 -22.746100   0.001972   0.004848 -15.148900   0.001872   0.005047 -20.340600   0.056877  -0.141678 -30.510500   0.005693   0.009959 -20.320000   0.000817   0.008610   5.475060  -1.980260  17.832600  56.899300  30.766300  29.434700 -11.091800 -11.501800  60.271200 -51.593400 -70.900200 -11.903900 -54.269800  39.603200  78.227600 -14.930100  -0.012778  -0.003272 -12.465100  -0.013741   0.002232  14.172900   2.731720  10.687700  11.804100   0.002915   0.006331   8.262890   0.009218   0.009519  17.216800  -0.316387  -1.020460  17.220200   0.010328   0.005377  11.468700   0.009086   0.005512  22.839000  -4.671510 -10.942400  23.287800   0.005612   0.010953  15.509700   0.010430   0.005844  20.467200  -8.656700 -21.948400  33.237900   0.008413   0.011124  22.136500   0.008024   0.003692   3.227070  17.362500   3.450310   0.368128   0.000233   9.302350  -2.596000  -3.291290  -0.352459  -0.000000   0.000000   0.000000   1.817020  12.397200  -6.909080   0.920381   5.217970  -7.424400  -2.882440  -3.902820  -1.987280   0.000000   0.000000  -0.000000
 -1.713300  89.491000   3.653260  -2.106100 -13.036300   1.991730   3.337710   8.178290  -0.610719   6.870580  16.305600  -1.733980  -1.826910   1.538900   0.048703  -3.007200   3.111080   9.793830 -11.666200  -0.346750  -3.930260 -53.575500  22.172000 -47.886700  22.849800   7.073380 -68.948900  25.264600  27.950000 -10.025000  37.865300  21.347500 -61.639000   6.696000   0.001660   0.002912   8.347990   0.007195   0.001854 -19.024800   5.809690 -16.340900 -16.249500   0.002507   0.008575 -11.374600   0.003039   0.003270 -21.221800   4.235680 -10.764200 -21.621000   0.002574   0.004718 -14.399600   0.006363   0.003973 -22.823700   4.391160 -10.286000 -23.222500   0.003316   0.005043 -15.466200   0.001870   0.005232 -20.698000  -0.001028   0.022465 -31.046200   0.009196   0.010259 -20.676700   0.000777   0.008865   5.527240  -1.921570  17.902400  56.823500  30.737600  29.488400 -11.302200 -11.534700  59.869700 -50.034400 -70.154900 -10.474000 -54.786700  39.854800  78.548300 -14.560900  -0.027293  -0.006764 -12.280500  -0.013645   0.002510  14.502200   2.811160  10.687900  12.076600   0.006311   0.011556   8.453600   0.009307   0.009718  17.417300  -0.290079  -0.918833  17.419100   0.010633   0.009559  11.601200   0.009180   0.006024  23.145100  -4.710660 -10.871300  23.625700   0.010519   0.012819  15.734700   0.011376   0.006024  20.844400  -8.655000 -21.533700  33.765400   0.016706   0.016019  22.487800   0.015400   0.003604   3.255580  17.275700   3.398320   0.348987   0.063625   9.264880  -2.603020  -3.339890  -0.329014   0.000000   0.000000   0.000000   1.836620  12.355000  -6.874060   0.928627   5.205440  -7.482910  -2.902310  -3.924010  -2.028420  -0.000000   0.000000   0.000000
 -1.743190  89.497300   3.683010  -2.094280 -12.953900   2.049870   3.297250   8.093130  -0.627918   6.787670  16.135200  -1.757040  -1.839820   1.486610   0.046960  -3.028050   3.005140   9.872220 -11.718300  -0.250983  -3.906230 -53.553600  22.092300 -47.667500  22.987500   7.220390 -68.724600  24.997900  27.928700  -9.482510  38.004700  21.300800 -61.398300   5.506050   0.001805   0.006307   7.753030   0.007202   0.001957 -19.652000   5.868790 -15.942700 -16.753600   0.002582   0.008757 -11.727500   0.003037   0.003373 -21.599900   4.182790 -10.431700 -21.981800   0.002443   0.004717 -14.639900   0.006361   0.004000 -23.426100   4.323320  -9.853020 -23.799300   0.004810   0.005392 -15.850300   0.001868   0.005417 -21.179600  -0.081066   0.233986 -31.768500   0.012761   0.010702 -21.157800   0.000726   0.009314   5.577450  -1.859120  17.957900  56.742100  30.717300  29.543900 -11.582400 -11.565900  59.254500 -48.111000 -69.218000  -8.741210 -55.418700  40.139900  78.922000 -13.916900  -0.037349  -0.009160 -11.958500  -0.012975   0.002808  14.959700   2.891450  10.685000  12.456300   0.011131   0.016781   8.719380   0.009575   0.010320  17.730600  -0.276476  -0.864903  17.732200   0.011251   0.015186  11.809600   0.009465   0.007023  23.587500  -4.768040 -10.775400  24.063800   0.014949   0.014173  16.026500   0.012216   0.006223  21.362100  -8.654510 -21.006400  34.489600   0.022436   0.018758  22.970100   0.020444   0.003508   3.281220  17.180500   3.354230   0.331818   0.110024   9.227820  -2.607380  -3.371420  -0.308864  -0.000000   0.000000  -0.000000   1.857220  12.293700  -6.847060   0.934028   5.198830  -7.543950  -2.921220  -3.943140  -2.058470   0.000000   0.000000   0.000000
 -1.775270  89.503500   3.708390  -2.084390 -12.854900   2.103990   3.251240   7.998700  -0.644228   6.693060  15.946500  -1.777000  -1.846930   1.429200   0.045312  -3.039470   2.888860   9.934390 -11.740700  -0.139333  -3.838380 -53.521600  21.962200 -47.496800  23.002700   7.357390 -68.281200  24.545500  27.796500  -8.736270  38.058300  21.498000 -61.563400   4.209070   0.001871   0.009383   7.104540   0.007201   0.002056 -20.487300   5.963090 -15.478800 -17.428600   0.002658   0.008885 -12.200000   0.003040   0.003469 -21.910300   4.108730 -10.081600 -22.272800   0.002314   0.004566 -14.833700   0.006362   0.004097 -24.100200   4.229570  -9.345940 -24.411500   0.005669   0.005681 -16.258000   0.001867   0.005509 -21.797000  -0.178386   0.468909 -32.695300   0.015089   0.011082 -21.775100   0.000668   0.009725   5.622080  -1.795640  17.981400  56.654300  30.719600  29.607200 -11.979000 -11.588800  58.340000 -45.783200 -68.103500  -6.736060 -56.251400  40.498700  79.420200 -12.521200  -0.032832  -0.007292 -11.260600  -0.010707   0.002965  15.695900   2.953490  10.444500  13.060400   0.012689   0.018952   9.142300   0.010460   0.012455  18.253300  -0.312274  -0.927223  18.259000   0.011935   0.017391  12.160500   0.010002   0.008790  24.343700  -4.871360 -10.630700  24.655800   0.015764   0.013912  16.420800   0.012517   0.006478  22.154400  -8.669750 -20.294200  35.602600   0.020652   0.016083  23.711400   0.018531   0.003427   3.301530  17.114100   3.326520   0.313567   0.055339   9.186770  -2.604180  -3.347190  -0.290261  -0.000000   0.000000   0.000000   1.877720  12.205400  -6.838230   0.931308   5.199850  -7.594560  -2.938160  -3.960280  -2.076730  -0.000000   0.000000  -0.000000
